ISO-10303-21;
HEADER;
FILE_DESCRIPTION (( 'STEP AP214' ),
    '1' );
FILE_NAME ('PSR500HTQFC0L20.STEP',
    '2019-12-28T17:04:38',
    ( '' ),
    ( '' ),
    'SwSTEP 2.0',
    'SolidWorks 2018',
    '' );
FILE_SCHEMA (( 'AUTOMOTIVE_DESIGN' ));
ENDSEC;

DATA;
#1 = DIRECTION ( 'NONE',  ( 0.0000000000000000000, 0.0000000000000000000, 1.000000000000000000 ) ) ;
#2 = VERTEX_POINT ( 'NONE', #20 ) ;
#3 = ORIENTED_EDGE ( 'NONE', *, *, #409, .F. ) ;
#4 = VERTEX_POINT ( 'NONE', #518 ) ;
#5 = CARTESIAN_POINT ( 'NONE',  ( -3.499999999999999556, 0.0000000000000000000, 3.875000000000000000 ) ) ;
#6 = AXIS2_PLACEMENT_3D ( 'NONE', #348, #549, #92 ) ;
#7 = LINE ( 'NONE', #553, #419 ) ;
#8 = LINE ( 'NONE', #633, #314 ) ;
#9 = LINE ( 'NONE', #462, #321 ) ;
#10 = EDGE_LOOP ( 'NONE', ( #141, #184, #363, #451 ) ) ;
#11 = EDGE_CURVE ( 'NONE', #270, #653, #9, .T. ) ;
#12 = CARTESIAN_POINT ( 'NONE',  ( 3.499999999999999556, 0.0000000000000000000, 3.875000000000000000 ) ) ;
#13 = EDGE_CURVE ( 'NONE', #186, #173, #522, .T. ) ;
#14 = FACE_OUTER_BOUND ( 'NONE', #557, .T. ) ;
#15 = CARTESIAN_POINT ( 'NONE',  ( 3.000000000000000000, 2.000000000000000000, -3.875000000000000000 ) ) ;
#16 = ORIENTED_EDGE ( 'NONE', *, *, #185, .T. ) ;
#17 = ORIENTED_EDGE ( 'NONE', *, *, #282, .T. ) ;
#18 = ORIENTED_EDGE ( 'NONE', *, *, #626, .T. ) ;
#19 = ADVANCED_FACE ( 'NONE', ( #429 ), #627, .T. ) ;
#20 = CARTESIAN_POINT ( 'NONE',  ( 3.000000000000000000, 0.6666666666666666297, 3.875000000000000000 ) ) ;
#21 = CARTESIAN_POINT ( 'NONE',  ( 3.000000000000000000, 2.000000000000000000, -3.875000000000000000 ) ) ;
#22 = VECTOR ( 'NONE', #188, 1000.000000000000000 ) ;
#23 = LINE ( 'NONE', #596, #351 ) ;
#24 = ORIENTED_EDGE ( 'NONE', *, *, #480, .F. ) ;
#25 = EDGE_LOOP ( 'NONE', ( #430, #465, #246, #157, #420, #112 ) ) ;
#26 =( NAMED_UNIT ( * ) SI_UNIT ( $, .STERADIAN. ) SOLID_ANGLE_UNIT ( ) );
#27 = CARTESIAN_POINT ( 'NONE',  ( -7.500000000000000000, 0.0000000000000000000, -3.875000000000000000 ) ) ;
#28 = FACE_OUTER_BOUND ( 'NONE', #315, .T. ) ;
#29 = DIRECTION ( 'NONE',  ( -0.0000000000000000000, -0.0000000000000000000, -1.000000000000000000 ) ) ;
#30 = LINE ( 'NONE', #266, #505 ) ;
#31 = AXIS2_PLACEMENT_3D ( 'NONE', #71, #117, #642 ) ;
#32 = ORIENTED_EDGE ( 'NONE', *, *, #400, .T. ) ;
#33 = ORIENTED_EDGE ( 'NONE', *, *, #229, .F. ) ;
#34 = SURFACE_STYLE_USAGE ( .BOTH. , #192 ) ;
#35 = AXIS2_PLACEMENT_3D ( 'NONE', #417, #470, #108 ) ;
#36 = CARTESIAN_POINT ( 'NONE',  ( 3.000000000000000000, 0.6666666666666666297, 3.875000000000000000 ) ) ;
#37 = LINE ( 'NONE', #391, #22 ) ;
#38 = VECTOR ( 'NONE', #225, 1000.000000000000000 ) ;
#39 = CARTESIAN_POINT ( 'NONE',  ( 7.500000000000000000, 1.333333333333333259, 3.875000000000000000 ) ) ;
#40 = EDGE_LOOP ( 'NONE', ( #559, #412, #593, #592, #516, #53 ) ) ;
#41 = CARTESIAN_POINT ( 'NONE',  ( -3.499999999999999556, 1.333333333333333259, 3.875000000000000000 ) ) ;
#42 = DIRECTION ( 'NONE',  ( -0.0000000000000000000, -0.0000000000000000000, -1.000000000000000000 ) ) ;
#43 = PRESENTATION_LAYER_ASSIGNMENT (  '', '', ( #476 ) ) ;
#44 = DIRECTION ( 'NONE',  ( -1.000000000000000000, 0.0000000000000000000, -0.0000000000000000000 ) ) ;
#45 = VECTOR ( 'NONE', #445, 1000.000000000000000 ) ;
#46 = DIRECTION ( 'NONE',  ( -0.5999999999999997558, -0.8000000000000002665, -0.0000000000000000000 ) ) ;
#47 = EDGE_CURVE ( 'NONE', #424, #483, #531, .T. ) ;
#48 = EDGE_LOOP ( 'NONE', ( #548, #572, #60, #490 ) ) ;
#49 = DIRECTION ( 'NONE',  ( 0.0000000000000000000, 0.0000000000000000000, -1.000000000000000000 ) ) ;
#50 = CARTESIAN_POINT ( 'NONE',  ( -3.000000000000000000, 0.6666666666666666297, 3.875000000000000000 ) ) ;
#51 = FACE_OUTER_BOUND ( 'NONE', #571, .T. ) ;
#52 = VECTOR ( 'NONE', #209, 1000.000000000000000 ) ;
#53 = ORIENTED_EDGE ( 'NONE', *, *, #47, .F. ) ;
#54 = ORIENTED_EDGE ( 'NONE', *, *, #569, .T. ) ;
#55 = MANIFOLD_SOLID_BREP ( 'Boss-Extrude2', #525 ) ;
#56 = VECTOR ( 'NONE', #604, 1000.000000000000000 ) ;
#57 = DIRECTION ( 'NONE',  ( 1.000000000000000000, 0.0000000000000000000, 0.0000000000000000000 ) ) ;
#58 = COLOUR_RGB ( '',0.5372549019607842924, 0.3490196078431372362, 0.3372549019607843368 ) ;
#59 = ORIENTED_EDGE ( 'NONE', *, *, #567, .F. ) ;
#60 = ORIENTED_EDGE ( 'NONE', *, *, #423, .F. ) ;
#61 = ORIENTED_EDGE ( 'NONE', *, *, #381, .F. ) ;
#62 = AXIS2_PLACEMENT_3D ( 'NONE', #170, #226, #114 ) ;
#63 = LINE ( 'NONE', #69, #171 ) ;
#64 = DIRECTION ( 'NONE',  ( 0.0000000000000000000, -0.0000000000000000000, 1.000000000000000000 ) ) ;
#65 = LINE ( 'NONE', #598, #600 ) ;
#66 = ORIENTED_EDGE ( 'NONE', *, *, #180, .T. ) ;
#67 = ORIENTED_EDGE ( 'NONE', *, *, #638, .T. ) ;
#68 = DIRECTION ( 'NONE',  ( 0.8000000000000002665, 0.5999999999999997558, -0.0000000000000000000 ) ) ;
#69 = CARTESIAN_POINT ( 'NONE',  ( 3.000000000000000000, 2.000000000000000000, -3.875000000000000000 ) ) ;
#70 = CARTESIAN_POINT ( 'NONE',  ( 3.000000000000000000, 2.000000000000000000, 3.875000000000000000 ) ) ;
#71 = CARTESIAN_POINT ( 'NONE',  ( 7.500000000000000000, 1.333333333333333259, 3.875000000000000000 ) ) ;
#72 = CARTESIAN_POINT ( 'NONE',  ( -3.000000000000000000, 2.000000000000000000, -10.02136297152859257 ) ) ;
#73 = STYLED_ITEM ( 'NONE', ( #609 ), #174 ) ;
#74 = LINE ( 'NONE', #568, #172 ) ;
#75 = CARTESIAN_POINT ( 'NONE',  ( -3.000000000000000000, 0.6666666666666666297, 3.875000000000000000 ) ) ;
#76 = SURFACE_SIDE_STYLE ('',( #482 ) ) ;
#77 = EDGE_LOOP ( 'NONE', ( #193, #655, #140, #564 ) ) ;
#78 = DIRECTION ( 'NONE',  ( -0.0000000000000000000, -0.0000000000000000000, -1.000000000000000000 ) ) ;
#79 = CARTESIAN_POINT ( 'NONE',  ( -3.000000000000000000, 2.000000000000000000, -3.875000000000000000 ) ) ;
#80 = CARTESIAN_POINT ( 'NONE',  ( -3.000000000000000000, 0.6666666666666666297, 3.875000000000000000 ) ) ;
#81 = LINE ( 'NONE', #75, #375 ) ;
#82 = PRODUCT ( 'PSR500HTQFC0L20', 'PSR500HTQFC0L20', '', ( #354 ) ) ;
#83 = ORIENTED_EDGE ( 'NONE', *, *, #426, .F. ) ;
#84 = ORIENTED_EDGE ( 'NONE', *, *, #413, .T. ) ;
#85 = PLANE ( 'NONE',  #272 ) ;
#86 = AXIS2_PLACEMENT_3D ( 'NONE', #5, #310, #1 ) ;
#87 = DIRECTION ( 'NONE',  ( 0.5999999999999997558, -0.8000000000000002665, 0.0000000000000000000 ) ) ;
#88 = CARTESIAN_POINT ( 'NONE',  ( -3.000000000000000000, 2.000000000000000000, 3.875000000000000000 ) ) ;
#89 = DIRECTION ( 'NONE',  ( 0.0000000000000000000, -1.000000000000000000, 0.0000000000000000000 ) ) ;
#90 = LINE ( 'NONE', #241, #624 ) ;
#91 = PLANE ( 'NONE',  #623 ) ;
#92 = DIRECTION ( 'NONE',  ( 1.000000000000000000, 0.0000000000000000000, 0.0000000000000000000 ) ) ;
#93 = VERTEX_POINT ( 'NONE', #15 ) ;
#94 = DIRECTION ( 'NONE',  ( -1.000000000000000000, 0.0000000000000000000, 0.0000000000000000000 ) ) ;
#95 = CARTESIAN_POINT ( 'NONE',  ( -3.000000000000000000, 2.000000000000000000, 3.875000000000000000 ) ) ;
#96 = CARTESIAN_POINT ( 'NONE',  ( -3.499999999999999556, 0.0000000000000000000, -3.875000000000000000 ) ) ;
#97 = CARTESIAN_POINT ( 'NONE',  ( -7.500000000000000000, 1.333333333333333259, 3.875000000000000000 ) ) ;
#98 = SHAPE_DEFINITION_REPRESENTATION ( #474, #575 ) ;
#99 = FACE_OUTER_BOUND ( 'NONE', #508, .T. ) ;
#100 = EDGE_CURVE ( 'NONE', #473, #653, #651, .T. ) ;
#101 = ORIENTED_EDGE ( 'NONE', *, *, #495, .T. ) ;
#102 = ORIENTED_EDGE ( 'NONE', *, *, #455, .T. ) ;
#103 = AXIS2_PLACEMENT_3D ( 'NONE', #307, #355, #504 ) ;
#104 = ORIENTED_EDGE ( 'NONE', *, *, #11, .T. ) ;
#105 = AXIS2_PLACEMENT_3D ( 'NONE', #618, #300, #297 ) ;
#106 = ORIENTED_EDGE ( 'NONE', *, *, #265, .T. ) ;
#107 = CARTESIAN_POINT ( 'NONE',  ( 3.499999999999999556, 0.0000000000000000000, -3.875000000000000000 ) ) ;
#108 = DIRECTION ( 'NONE',  ( 1.000000000000000000, 0.0000000000000000000, 0.0000000000000000000 ) ) ;
#109 = EDGE_CURVE ( 'NONE', #186, #438, #74, .T. ) ;
#110 = ADVANCED_FACE ( 'NONE', ( #223 ), #432, .F. ) ;
#111 = FACE_OUTER_BOUND ( 'NONE', #524, .T. ) ;
#112 = ORIENTED_EDGE ( 'NONE', *, *, #638, .F. ) ;
#113 = ORIENTED_EDGE ( 'NONE', *, *, #332, .F. ) ;
#114 = DIRECTION ( 'NONE',  ( 1.000000000000000000, 0.0000000000000000000, 0.0000000000000000000 ) ) ;
#115 = SURFACE_SIDE_STYLE ('',( #292 ) ) ;
#116 = AXIS2_PLACEMENT_3D ( 'NONE', #456, #506, #411 ) ;
#117 = DIRECTION ( 'NONE',  ( 0.0000000000000000000, -1.000000000000000000, 0.0000000000000000000 ) ) ;
#118 = VECTOR ( 'NONE', #181, 1000.000000000000000 ) ;
#119 = UNCERTAINTY_MEASURE_WITH_UNIT (LENGTH_MEASURE( 1.000000000000000082E-05 ), #285, 'distance_accuracy_value', 'NONE');
#120 = VECTOR ( 'NONE', #392, 1000.000000000000000 ) ;
#121 = ADVANCED_FACE ( 'NONE', ( #376 ), #528, .F. ) ;
#122 = ORIENTED_EDGE ( 'NONE', *, *, #47, .T. ) ;
#123 = EDGE_LOOP ( 'NONE', ( #164, #477, #631, #54, #621, #625 ) ) ;
#124 = DIRECTION ( 'NONE',  ( -0.0000000000000000000, -1.000000000000000000, -0.0000000000000000000 ) ) ;
#125 =( NAMED_UNIT ( * ) PLANE_ANGLE_UNIT ( ) SI_UNIT ( $, .RADIAN. ) );
#126 = CARTESIAN_POINT ( 'NONE',  ( 3.499999999999999556, 1.333333333333333259, 3.875000000000000000 ) ) ;
#127 = VECTOR ( 'NONE', #46, 1000.000000000000114 ) ;
#128 = FACE_OUTER_BOUND ( 'NONE', #219, .T. ) ;
#129 = DIRECTION ( 'NONE',  ( 1.000000000000000000, 0.0000000000000000000, 0.0000000000000000000 ) ) ;
#130 = ORIENTED_EDGE ( 'NONE', *, *, #198, .T. ) ;
#131 = EDGE_LOOP ( 'NONE', ( #122, #534, #294, #622 ) ) ;
#132 = EDGE_LOOP ( 'NONE', ( #306, #264, #538, #454 ) ) ;
#133 = MECHANICAL_DESIGN_GEOMETRIC_PRESENTATION_REPRESENTATION (  '', ( #73 ), #210 ) ;
#134 = DIRECTION ( 'NONE',  ( -0.0000000000000000000, 0.0000000000000000000, -1.000000000000000000 ) ) ;
#135 = CARTESIAN_POINT ( 'NONE',  ( 0.0000000000000000000, 0.0000000000000000000, -3.875000000000000000 ) ) ;
#136 = CARTESIAN_POINT ( 'NONE',  ( 7.500000000000000000, 0.0000000000000000000, 3.875000000000000000 ) ) ;
#137 = FACE_OUTER_BOUND ( 'NONE', #263, .T. ) ;
#138 = LINE ( 'NONE', #594, #120 ) ;
#139 =( NAMED_UNIT ( * ) SI_UNIT ( $, .STERADIAN. ) SOLID_ANGLE_UNIT ( ) );
#140 = ORIENTED_EDGE ( 'NONE', *, *, #317, .F. ) ;
#141 = ORIENTED_EDGE ( 'NONE', *, *, #325, .F. ) ;
#142 = CARTESIAN_POINT ( 'NONE',  ( -3.499999999999999556, 1.333333333333333259, 3.875000000000000000 ) ) ;
#143 = APPLICATION_CONTEXT ( 'automotive_design' ) ;
#144 = DIRECTION ( 'NONE',  ( 1.000000000000000000, -0.0000000000000000000, -0.0000000000000000000 ) ) ;
#145 = EDGE_CURVE ( 'NONE', #539, #257, #8, .T. ) ;
#146 = VECTOR ( 'NONE', #353, 1000.000000000000000 ) ;
#147 = PLANE ( 'NONE',  #561 ) ;
#148 = VECTOR ( 'NONE', #57, 1000.000000000000000 ) ;
#149 = UNCERTAINTY_MEASURE_WITH_UNIT (LENGTH_MEASURE( 1.000000000000000082E-05 ), #291, 'distance_accuracy_value', 'NONE');
#150 = ORIENTED_EDGE ( 'NONE', *, *, #229, .T. ) ;
#151 = DIRECTION ( 'NONE',  ( 0.0000000000000000000, -1.000000000000000000, 0.0000000000000000000 ) ) ;
#152 = PRESENTATION_LAYER_ASSIGNMENT (  '', '', ( #160 ) ) ;
#153 = VECTOR ( 'NONE', #303, 1000.000000000000000 ) ;
#154 = COLOUR_RGB ( '',0.5372549019607842924, 0.3490196078431372362, 0.3372549019607843368 ) ;
#155 = VECTOR ( 'NONE', #364, 1000.000000000000000 ) ;
#156 = CARTESIAN_POINT ( 'NONE',  ( -3.000000000000000000, 0.6666666666666666297, -3.875000000000000000 ) ) ;
#157 = ORIENTED_EDGE ( 'NONE', *, *, #180, .F. ) ;
#158 = DIRECTION ( 'NONE',  ( -0.5999999999999997558, 0.8000000000000002665, 0.0000000000000000000 ) ) ;
#159 = EDGE_CURVE ( 'NONE', #173, #270, #488, .T. ) ;
#160 = STYLED_ITEM ( 'NONE', ( #555 ), #575 ) ;
#161 = DIRECTION ( 'NONE',  ( -0.0000000000000000000, -0.0000000000000000000, -1.000000000000000000 ) ) ;
#162 = LINE ( 'NONE', #399, #190 ) ;
#163 = VECTOR ( 'NONE', #158, 1000.000000000000114 ) ;
#164 = ORIENTED_EDGE ( 'NONE', *, *, #317, .T. ) ;
#165 = ORIENTED_EDGE ( 'NONE', *, *, #332, .T. ) ;
#166 = CLOSED_SHELL ( 'NONE', ( #110, #215, #416, #472, #318, #581, #19, #269 ) ) ;
#167 = FILL_AREA_STYLE_COLOUR ( '', #639 ) ;
#168 = ADVANCED_FACE ( 'NONE', ( #212 ), #338, .T. ) ;
#169 = UNCERTAINTY_MEASURE_WITH_UNIT (LENGTH_MEASURE( 1.000000000000000082E-05 ), #551, 'distance_accuracy_value', 'NONE');
#170 = CARTESIAN_POINT ( 'NONE',  ( 0.0000000000000000000, 0.0000000000000000000, -3.875000000000000000 ) ) ;
#171 = VECTOR ( 'NONE', #336, 1000.000000000000000 ) ;
#172 = VECTOR ( 'NONE', #29, 1000.000000000000000 ) ;
#173 = VERTEX_POINT ( 'NONE', #434 ) ;
#174 = MANIFOLD_SOLID_BREP ( 'Boss-Extrude1[1]', #360 ) ;
#175 = FILL_AREA_STYLE_COLOUR ( '', #154 ) ;
#176 = VERTEX_POINT ( 'NONE', #21 ) ;
#177 = AXIS2_PLACEMENT_3D ( 'NONE', #649, #608, #658 ) ;
#178 =( LENGTH_UNIT ( ) NAMED_UNIT ( * ) SI_UNIT ( .MILLI., .METRE. ) );
#179 = CARTESIAN_POINT ( 'NONE',  ( 7.500000000000000000, 1.333333333333333259, -3.875000000000000000 ) ) ;
#180 = EDGE_CURVE ( 'NONE', #653, #452, #333, .T. ) ;
#181 = DIRECTION ( 'NONE',  ( 0.0000000000000000000, 0.0000000000000000000, 1.000000000000000000 ) ) ;
#182 = LINE ( 'NONE', #41, #127 ) ;
#183 = DIRECTION ( 'NONE',  ( -0.0000000000000000000, 1.000000000000000000, -0.0000000000000000000 ) ) ;
#184 = ORIENTED_EDGE ( 'NONE', *, *, #480, .T. ) ;
#185 = EDGE_CURVE ( 'NONE', #452, #176, #630, .T. ) ;
#186 = VERTEX_POINT ( 'NONE', #373 ) ;
#187 =( NAMED_UNIT ( * ) SI_UNIT ( $, .STERADIAN. ) SOLID_ANGLE_UNIT ( ) );
#188 = DIRECTION ( 'NONE',  ( -0.0000000000000000000, -0.0000000000000000000, -1.000000000000000000 ) ) ;
#189 = DIRECTION ( 'NONE',  ( -0.0000000000000000000, -0.0000000000000000000, -1.000000000000000000 ) ) ;
#190 = VECTOR ( 'NONE', #89, 1000.000000000000000 ) ;
#191 = LINE ( 'NONE', #240, #45 ) ;
#192 = SURFACE_SIDE_STYLE ('',( #342 ) ) ;
#193 = ORIENTED_EDGE ( 'NONE', *, *, #346, .T. ) ;
#194 = DIRECTION ( 'NONE',  ( -0.5999999999999997558, -0.8000000000000002665, -0.0000000000000000000 ) ) ;
#195 =( NAMED_UNIT ( * ) PLANE_ANGLE_UNIT ( ) SI_UNIT ( $, .RADIAN. ) );
#196 = PLANE ( 'NONE',  #461 ) ;
#197 = SURFACE_STYLE_USAGE ( .BOTH. , #552 ) ;
#198 = EDGE_CURVE ( 'NONE', #213, #205, #216, .T. ) ;
#199 = DIRECTION ( 'NONE',  ( -0.0000000000000000000, -0.0000000000000000000, -1.000000000000000000 ) ) ;
#200 = VECTOR ( 'NONE', #183, 1000.000000000000000 ) ;
#201 =( NAMED_UNIT ( * ) SI_UNIT ( $, .STERADIAN. ) SOLID_ANGLE_UNIT ( ) );
#202 = ORIENTED_EDGE ( 'NONE', *, *, #198, .F. ) ;
#203 = DIRECTION ( 'NONE',  ( 1.000000000000000000, -0.0000000000000000000, -0.0000000000000000000 ) ) ;
#204 = ORIENTED_EDGE ( 'NONE', *, *, #390, .T. ) ;
#205 = VERTEX_POINT ( 'NONE', #585 ) ;
#206 = CARTESIAN_POINT ( 'NONE',  ( -7.500000000000000000, 0.0000000000000000000, 3.875000000000000000 ) ) ;
#207 =( GEOMETRIC_REPRESENTATION_CONTEXT ( 3 ) GLOBAL_UNCERTAINTY_ASSIGNED_CONTEXT ( ( #149 ) ) GLOBAL_UNIT_ASSIGNED_CONTEXT ( ( #291, #248, #139 ) ) REPRESENTATION_CONTEXT ( 'NONE', 'WORKASPACE' ) );
#208 = DIRECTION ( 'NONE',  ( 1.000000000000000000, 0.0000000000000000000, 0.0000000000000000000 ) ) ;
#209 = DIRECTION ( 'NONE',  ( -0.0000000000000000000, -0.0000000000000000000, -1.000000000000000000 ) ) ;
#210 =( GEOMETRIC_REPRESENTATION_CONTEXT ( 3 ) GLOBAL_UNCERTAINTY_ASSIGNED_CONTEXT ( ( #478 ) ) GLOBAL_UNIT_ASSIGNED_CONTEXT ( ( #178, #125, #328 ) ) REPRESENTATION_CONTEXT ( 'NONE', 'WORKASPACE' ) );
#211 = LINE ( 'NONE', #530, #118 ) ;
#212 = FACE_OUTER_BOUND ( 'NONE', #466, .T. ) ;
#213 = VERTEX_POINT ( 'NONE', #636 ) ;
#214 = PRODUCT_RELATED_PRODUCT_CATEGORY ( 'part', '', ( #82 ) ) ;
#215 = ADVANCED_FACE ( 'NONE', ( #395 ), #277, .F. ) ;
#216 = LINE ( 'NONE', #535, #637 ) ;
#217 = AXIS2_PLACEMENT_3D ( 'NONE', #250, #550, #562 ) ;
#218 = ORIENTED_EDGE ( 'NONE', *, *, #500, .F. ) ;
#219 = EDGE_LOOP ( 'NONE', ( #541, #102, #150, #130 ) ) ;
#220 = CARTESIAN_POINT ( 'NONE',  ( -3.000000000000000000, 0.6666666666666666297, -3.875000000000000000 ) ) ;
#221 = EDGE_CURVE ( 'NONE', #283, #2, #579, .T. ) ;
#222 = VECTOR ( 'NONE', #586, 1000.000000000000000 ) ;
#223 = FACE_OUTER_BOUND ( 'NONE', #77, .T. ) ;
#224 = ORIENTED_EDGE ( 'NONE', *, *, #159, .F. ) ;
#225 = DIRECTION ( 'NONE',  ( -1.000000000000000000, 0.0000000000000000000, 0.0000000000000000000 ) ) ;
#226 = DIRECTION ( 'NONE',  ( -0.0000000000000000000, 0.0000000000000000000, 1.000000000000000000 ) ) ;
#227 = PLANE ( 'NONE',  #628 ) ;
#228 = ORIENTED_EDGE ( 'NONE', *, *, #654, .T. ) ;
#229 = EDGE_CURVE ( 'NONE', #368, #213, #458, .T. ) ;
#230 = DIRECTION ( 'NONE',  ( 0.0000000000000000000, -1.000000000000000000, 0.0000000000000000000 ) ) ;
#231 = VERTEX_POINT ( 'NONE', #486 ) ;
#232 = PRODUCT_DEFINITION_CONTEXT ( 'detailed design', #403, 'design' ) ;
#233 = CARTESIAN_POINT ( 'NONE',  ( 3.000000000000000000, 2.000000000000000000, 3.875000000000000000 ) ) ;
#234 = CARTESIAN_POINT ( 'NONE',  ( -3.000000000000000000, 0.6666666666666666297, -10.02136297152859257 ) ) ;
#235 = PLANE ( 'NONE',  #485 ) ;
#236 = LINE ( 'NONE', #511, #650 ) ;
#237 = ORIENTED_EDGE ( 'NONE', *, *, #554, .T. ) ;
#238 = STYLED_ITEM ( 'NONE', ( #262 ), #289 ) ;
#239 = ORIENTED_EDGE ( 'NONE', *, *, #513, .T. ) ;
#240 = CARTESIAN_POINT ( 'NONE',  ( -3.000000000000000000, 0.6666666666666666297, -3.875000000000000000 ) ) ;
#241 = CARTESIAN_POINT ( 'NONE',  ( 3.000000000000000000, 0.6666666666666666297, 3.875000000000000000 ) ) ;
#242 = DIRECTION ( 'NONE',  ( 0.0000000000000000000, 0.0000000000000000000, 1.000000000000000000 ) ) ;
#243 = DIRECTION ( 'NONE',  ( -0.0000000000000000000, -0.0000000000000000000, -1.000000000000000000 ) ) ;
#244 = CARTESIAN_POINT ( 'NONE',  ( -7.500000000000000000, 0.0000000000000000000, 3.875000000000000000 ) ) ;
#245 = CARTESIAN_POINT ( 'NONE',  ( 7.500000000000000000, 1.333333333333333259, -3.875000000000000000 ) ) ;
#246 = ORIENTED_EDGE ( 'NONE', *, *, #185, .F. ) ;
#247 = DIRECTION ( 'NONE',  ( -0.0000000000000000000, 1.000000000000000000, -0.0000000000000000000 ) ) ;
#248 =( NAMED_UNIT ( * ) PLANE_ANGLE_UNIT ( ) SI_UNIT ( $, .RADIAN. ) );
#249 = DIRECTION ( 'NONE',  ( 0.0000000000000000000, -1.000000000000000000, 0.0000000000000000000 ) ) ;
#250 = CARTESIAN_POINT ( 'NONE',  ( 7.500000000000000000, 0.0000000000000000000, 3.875000000000000000 ) ) ;
#251 = CARTESIAN_POINT ( 'NONE',  ( 3.499999999999999556, 0.0000000000000000000, -3.875000000000000000 ) ) ;
#252 = PLANE ( 'NONE',  #103 ) ;
#253 = CARTESIAN_POINT ( 'NONE',  ( -3.000000000000000000, 2.000000000000000000, 3.875000000000000000 ) ) ;
#254 = LINE ( 'NONE', #142, #280 ) ;
#255 = FACE_OUTER_BOUND ( 'NONE', #25, .T. ) ;
#256 = CARTESIAN_POINT ( 'NONE',  ( -7.500000000000000000, 1.333333333333333259, -3.875000000000000000 ) ) ;
#257 = VERTEX_POINT ( 'NONE', #27 ) ;
#258 = CARTESIAN_POINT ( 'NONE',  ( 0.0000000000000000000, 0.0000000000000000000, -3.875000000000000000 ) ) ;
#259 = EDGE_CURVE ( 'NONE', #2, #268, #275, .T. ) ;
#260 = LINE ( 'NONE', #463, #664 ) ;
#261 = CARTESIAN_POINT ( 'NONE',  ( 3.499999999999999556, 1.333333333333333259, 3.875000000000000000 ) ) ;
#262 = PRESENTATION_STYLE_ASSIGNMENT (( #34 ) ) ;
#263 = EDGE_LOOP ( 'NONE', ( #204, #59, #515, #322 ) ) ;
#264 = ORIENTED_EDGE ( 'NONE', *, *, #433, .F. ) ;
#265 = EDGE_CURVE ( 'NONE', #281, #452, #65, .T. ) ;
#266 = CARTESIAN_POINT ( 'NONE',  ( -3.000000000000000000, 0.6666666666666666297, 3.875000000000000000 ) ) ;
#267 = VECTOR ( 'NONE', #87, 1000.000000000000000 ) ;
#268 = VERTEX_POINT ( 'NONE', #441 ) ;
#269 = ADVANCED_FACE ( 'NONE', ( #255 ), #235, .F. ) ;
#270 = VERTEX_POINT ( 'NONE', #39 ) ;
#271 = ORIENTED_EDGE ( 'NONE', *, *, #369, .F. ) ;
#272 = AXIS2_PLACEMENT_3D ( 'NONE', #287, #542, #134 ) ;
#273 = SURFACE_STYLE_USAGE ( .BOTH. , #76 ) ;
#274 = VECTOR ( 'NONE', #243, 1000.000000000000000 ) ;
#275 = LINE ( 'NONE', #295, #464 ) ;
#276 = VERTEX_POINT ( 'NONE', #489 ) ;
#277 = PLANE ( 'NONE',  #523 ) ;
#278 = CARTESIAN_POINT ( 'NONE',  ( 3.000000000000000000, 2.000000000000000000, 3.875000000000000000 ) ) ;
#279 = VECTOR ( 'NONE', #144, 1000.000000000000000 ) ;
#280 = VECTOR ( 'NONE', #42, 1000.000000000000000 ) ;
#281 = VERTEX_POINT ( 'NONE', #126 ) ;
#282 = EDGE_CURVE ( 'NONE', #93, #213, #23, .T. ) ;
#283 = VERTEX_POINT ( 'NONE', #233 ) ;
#284 = DIRECTION ( 'NONE',  ( 0.0000000000000000000, -0.0000000000000000000, -1.000000000000000000 ) ) ;
#285 =( LENGTH_UNIT ( ) NAMED_UNIT ( * ) SI_UNIT ( .MILLI., .METRE. ) );
#286 = CARTESIAN_POINT ( 'NONE',  ( 3.499999999999999556, 1.333333333333333259, 3.875000000000000000 ) ) ;
#287 = CARTESIAN_POINT ( 'NONE',  ( 3.000000000000000000, 2.000000000000000000, -10.02136297152859257 ) ) ;
#288 = LINE ( 'NONE', #612, #153 ) ;
#289 = MANIFOLD_SOLID_BREP ( 'Boss-Extrude1[2]', #166 ) ;
#290 = VECTOR ( 'NONE', #230, 1000.000000000000000 ) ;
#291 =( LENGTH_UNIT ( ) NAMED_UNIT ( * ) SI_UNIT ( .MILLI., .METRE. ) );
#292 = SURFACE_STYLE_FILL_AREA ( #521 ) ;
#293 = MECHANICAL_DESIGN_GEOMETRIC_PRESENTATION_REPRESENTATION (  '', ( #476 ), #661 ) ;
#294 = ORIENTED_EDGE ( 'NONE', *, *, #495, .F. ) ;
#295 = CARTESIAN_POINT ( 'NONE',  ( 3.000000000000000000, 0.6666666666666666297, 3.875000000000000000 ) ) ;
#296 = APPLICATION_PROTOCOL_DEFINITION ( 'draft international standard', 'automotive_design', 1998, #403 ) ;
#297 = DIRECTION ( 'NONE',  ( 1.000000000000000000, 0.0000000000000000000, 0.0000000000000000000 ) ) ;
#298 = CARTESIAN_POINT ( 'NONE',  ( -3.499999999999999556, 0.0000000000000000000, -3.875000000000000000 ) ) ;
#299 = EDGE_CURVE ( 'NONE', #437, #610, #138, .T. ) ;
#300 = DIRECTION ( 'NONE',  ( -0.0000000000000000000, 0.0000000000000000000, 1.000000000000000000 ) ) ;
#301 = DIRECTION ( 'NONE',  ( -0.0000000000000000000, 0.0000000000000000000, -1.000000000000000000 ) ) ;
#302 = LINE ( 'NONE', #251, #56 ) ;
#303 = DIRECTION ( 'NONE',  ( -1.000000000000000000, -0.0000000000000000000, -0.0000000000000000000 ) ) ;
#304 = LINE ( 'NONE', #88, #487 ) ;
#305 = ORIENTED_EDGE ( 'NONE', *, *, #265, .F. ) ;
#306 = ORIENTED_EDGE ( 'NONE', *, *, #607, .T. ) ;
#307 = CARTESIAN_POINT ( 'NONE',  ( -3.000000000000000000, 2.000000000000000000, 3.875000000000000000 ) ) ;
#308 = EDGE_LOOP ( 'NONE', ( #237, #101, #32, #444, #387, #228 ) ) ;
#309 = PRODUCT_DEFINITION_FORMATION_WITH_SPECIFIED_SOURCE ( 'ANY', '', #82, .NOT_KNOWN. ) ;
#310 = DIRECTION ( 'NONE',  ( 0.0000000000000000000, 1.000000000000000000, -0.0000000000000000000 ) ) ;
#311 = DIRECTION ( 'NONE',  ( 0.0000000000000000000, 0.0000000000000000000, -1.000000000000000000 ) ) ;
#312 = AXIS2_PLACEMENT_3D ( 'NONE', #286, #339, #543 ) ;
#313 = FACE_OUTER_BOUND ( 'NONE', #132, .T. ) ;
#314 = VECTOR ( 'NONE', #124, 1000.000000000000000 ) ;
#315 = EDGE_LOOP ( 'NONE', ( #239, #397, #386, #84 ) ) ;
#316 = ORIENTED_EDGE ( 'NONE', *, *, #145, .T. ) ;
#317 = EDGE_CURVE ( 'NONE', #2, #186, #90, .T. ) ;
#318 = ADVANCED_FACE ( 'NONE', ( #99 ), #388, .F. ) ;
#319 = COLOUR_RGB ( '',0.7921568627450980005, 0.8196078431372548767, 0.9333333333333333481 ) ;
#320 = LINE ( 'NONE', #405, #410 ) ;
#321 = VECTOR ( 'NONE', #366, 1000.000000000000000 ) ;
#322 = ORIENTED_EDGE ( 'NONE', *, *, #359, .T. ) ;
#323 = ORIENTED_EDGE ( 'NONE', *, *, #282, .F. ) ;
#324 = CARTESIAN_POINT ( 'NONE',  ( 7.500000000000000000, 0.0000000000000000000, -3.875000000000000000 ) ) ;
#325 = EDGE_CURVE ( 'NONE', #4, #437, #191, .T. ) ;
#326 = VECTOR ( 'NONE', #545, 1000.000000000000000 ) ;
#327 = VERTEX_POINT ( 'NONE', #80 ) ;
#328 =( NAMED_UNIT ( * ) SI_UNIT ( $, .STERADIAN. ) SOLID_ANGLE_UNIT ( ) );
#329 = CARTESIAN_POINT ( 'NONE',  ( -3.000000000000000000, 2.000000000000000000, -3.875000000000000000 ) ) ;
#330 = PRESENTATION_LAYER_ASSIGNMENT (  '', '', ( #238 ) ) ;
#331 = CARTESIAN_POINT ( 'NONE',  ( 3.499999999999999556, 0.0000000000000000000, 3.875000000000000000 ) ) ;
#332 = EDGE_CURVE ( 'NONE', #437, #231, #599, .T. ) ;
#333 = LINE ( 'NONE', #179, #38 ) ;
#334 = EDGE_LOOP ( 'NONE', ( #66, #305, #459, #104 ) ) ;
#335 = VERTEX_POINT ( 'NONE', #603 ) ;
#336 = DIRECTION ( 'NONE',  ( 0.0000000000000000000, -1.000000000000000000, 0.0000000000000000000 ) ) ;
#337 = EDGE_LOOP ( 'NONE', ( #165, #421, #408, #573 ) ) ;
#338 = PLANE ( 'NONE',  #591 ) ;
#339 = DIRECTION ( 'NONE',  ( -0.8000000000000002665, -0.5999999999999997558, 0.0000000000000000000 ) ) ;
#340 = VECTOR ( 'NONE', #242, 1000.000000000000000 ) ;
#341 = PLANE ( 'NONE',  #657 ) ;
#342 = SURFACE_STYLE_FILL_AREA ( #347 ) ;
#343 = VERTEX_POINT ( 'NONE', #536 ) ;
#344 = DIRECTION ( 'NONE',  ( 0.5999999999999997558, -0.8000000000000002665, 0.0000000000000000000 ) ) ;
#345 = PLANE ( 'NONE',  #634 ) ;
#346 = EDGE_CURVE ( 'NONE', #268, #438, #629, .T. ) ;
#347 = FILL_AREA_STYLE ('',( #644 ) ) ;
#348 = CARTESIAN_POINT ( 'NONE',  ( 0.0000000000000000000, 0.0000000000000000000, 0.0000000000000000000 ) ) ;
#349 = DIRECTION ( 'NONE',  ( 0.5999999999999997558, 0.8000000000000002665, -0.0000000000000000000 ) ) ;
#350 = PLANE ( 'NONE',  #105 ) ;
#351 = VECTOR ( 'NONE', #384, 1000.000000000000000 ) ;
#352 = ORIENTED_EDGE ( 'NONE', *, *, #413, .F. ) ;
#353 = DIRECTION ( 'NONE',  ( -0.0000000000000000000, 1.000000000000000000, -0.0000000000000000000 ) ) ;
#354 = PRODUCT_CONTEXT ( 'NONE', #143, 'mechanical' ) ;
#355 = DIRECTION ( 'NONE',  ( -1.000000000000000000, 0.0000000000000000000, 0.0000000000000000000 ) ) ;
#356 = FACE_OUTER_BOUND ( 'NONE', #632, .T. ) ;
#357 = VECTOR ( 'NONE', #378, 1000.000000000000114 ) ;
#358 = ORIENTED_EDGE ( 'NONE', *, *, #447, .T. ) ;
#359 = EDGE_CURVE ( 'NONE', #327, #483, #37, .T. ) ;
#360 = CLOSED_SHELL ( 'NONE', ( #427, #431, #574, #576, #526, #425, #583, #374 ) ) ;
#361 = ADVANCED_FACE ( 'NONE', ( #356 ), #85, .T. ) ;
#362 = VECTOR ( 'NONE', #380, 1000.000000000000000 ) ;
#363 = ORIENTED_EDGE ( 'NONE', *, *, #455, .F. ) ;
#364 = DIRECTION ( 'NONE',  ( 0.5999999999999997558, 0.8000000000000002665, -0.0000000000000000000 ) ) ;
#365 = FACE_OUTER_BOUND ( 'NONE', #40, .T. ) ;
#366 = DIRECTION ( 'NONE',  ( -0.0000000000000000000, -0.0000000000000000000, -1.000000000000000000 ) ) ;
#367 = VERTEX_POINT ( 'NONE', #606 ) ;
#368 = VERTEX_POINT ( 'NONE', #36 ) ;
#369 = EDGE_CURVE ( 'NONE', #173, #473, #570, .T. ) ;
#370 = ADVANCED_FACE ( 'NONE', ( #128 ), #350, .T. ) ;
#371 = SURFACE_STYLE_USAGE ( .BOTH. , #115 ) ;
#372 = DIRECTION ( 'NONE',  ( 0.0000000000000000000, -1.000000000000000000, 0.0000000000000000000 ) ) ;
#373 = CARTESIAN_POINT ( 'NONE',  ( 3.499999999999999556, 0.0000000000000000000, 3.875000000000000000 ) ) ;
#374 = ADVANCED_FACE ( 'NONE', ( #365 ), #91, .T. ) ;
#375 = VECTOR ( 'NONE', #349, 1000.000000000000000 ) ;
#376 = FACE_OUTER_BOUND ( 'NONE', #337, .T. ) ;
#377 = PRESENTATION_STYLE_ASSIGNMENT (( #371 ) ) ;
#378 = DIRECTION ( 'NONE',  ( -0.5999999999999997558, 0.8000000000000002665, 0.0000000000000000000 ) ) ;
#379 = ORIENTED_EDGE ( 'NONE', *, *, #109, .T. ) ;
#380 = DIRECTION ( 'NONE',  ( 0.0000000000000000000, 1.000000000000000000, 0.0000000000000000000 ) ) ;
#381 = EDGE_CURVE ( 'NONE', #646, #257, #402, .T. ) ;
#382 = CARTESIAN_POINT ( 'NONE',  ( -3.000000000000000000, 0.6666666666666666297, -3.875000000000000000 ) ) ;
#383 = FACE_OUTER_BOUND ( 'NONE', #308, .T. ) ;
#384 = DIRECTION ( 'NONE',  ( 0.0000000000000000000, 0.0000000000000000000, 1.000000000000000000 ) ) ;
#385 = LINE ( 'NONE', #329, #222 ) ;
#386 = ORIENTED_EDGE ( 'NONE', *, *, #221, .F. ) ;
#387 = ORIENTED_EDGE ( 'NONE', *, *, #423, .T. ) ;
#388 = PLANE ( 'NONE',  #312 ) ;
#389 = CARTESIAN_POINT ( 'NONE',  ( -7.500000000000000000, 1.333333333333333259, 3.875000000000000000 ) ) ;
#390 = EDGE_CURVE ( 'NONE', #483, #276, #529, .T. ) ;
#391 = CARTESIAN_POINT ( 'NONE',  ( -3.000000000000000000, 0.6666666666666666297, 3.875000000000000000 ) ) ;
#392 = DIRECTION ( 'NONE',  ( 0.0000000000000000000, 0.0000000000000000000, 1.000000000000000000 ) ) ;
#393 = APPLICATION_PROTOCOL_DEFINITION ( 'draft international standard', 'automotive_design', 1998, #143 ) ;
#394 = LINE ( 'NONE', #448, #52 ) ;
#395 = FACE_OUTER_BOUND ( 'NONE', #582, .T. ) ;
#396 = ORIENTED_EDGE ( 'NONE', *, *, #492, .F. ) ;
#397 = ORIENTED_EDGE ( 'NONE', *, *, #259, .F. ) ;
#398 = CARTESIAN_POINT ( 'NONE',  ( -3.000000000000000000, 2.000000000000000000, -10.02136297152859257 ) ) ;
#399 = CARTESIAN_POINT ( 'NONE',  ( 3.000000000000000000, 2.000000000000000000, -3.875000000000000000 ) ) ;
#400 = EDGE_CURVE ( 'NONE', #327, #436, #304, .T. ) ;
#401 = CARTESIAN_POINT ( 'NONE',  ( -3.000000000000000000, 2.000000000000000000, -10.02136297152859257 ) ) ;
#402 = LINE ( 'NONE', #499, #457 ) ;
#403 = APPLICATION_CONTEXT ( 'automotive_design' ) ;
#404 = ORIENTED_EDGE ( 'NONE', *, *, #440, .F. ) ;
#405 = CARTESIAN_POINT ( 'NONE',  ( -3.499999999999999556, 0.0000000000000000000, 3.875000000000000000 ) ) ;
#406 = ORIENTED_EDGE ( 'NONE', *, *, #654, .F. ) ;
#407 = DIRECTION ( 'NONE',  ( 0.0000000000000000000, 0.0000000000000000000, 1.000000000000000000 ) ) ;
#408 = ORIENTED_EDGE ( 'NONE', *, *, #584, .T. ) ;
#409 = EDGE_CURVE ( 'NONE', #343, #415, #254, .T. ) ;
#410 = VECTOR ( 'NONE', #203, 1000.000000000000000 ) ;
#411 = DIRECTION ( 'NONE',  ( -0.5999999999999997558, -0.8000000000000002665, 0.0000000000000000000 ) ) ;
#412 = ORIENTED_EDGE ( 'NONE', *, *, #145, .F. ) ;
#413 = EDGE_CURVE ( 'NONE', #283, #176, #394, .T. ) ;
#414 = ADVANCED_FACE ( 'NONE', ( #620 ), #196, .T. ) ;
#415 = VERTEX_POINT ( 'NONE', #501 ) ;
#416 = ADVANCED_FACE ( 'NONE', ( #14 ), #659, .F. ) ;
#417 = CARTESIAN_POINT ( 'NONE',  ( 0.0000000000000000000, 0.0000000000000000000, 3.875000000000000000 ) ) ;
#418 = LINE ( 'NONE', #298, #279 ) ;
#419 = VECTOR ( 'NONE', #558, 1000.000000000000000 ) ;
#420 = ORIENTED_EDGE ( 'NONE', *, *, #100, .F. ) ;
#421 = ORIENTED_EDGE ( 'NONE', *, *, #492, .T. ) ;
#422 = DIRECTION ( 'NONE',  ( 0.0000000000000000000, 1.000000000000000000, 0.0000000000000000000 ) ) ;
#423 = EDGE_CURVE ( 'NONE', #343, #335, #577, .T. ) ;
#424 = VERTEX_POINT ( 'NONE', #96 ) ;
#425 = ADVANCED_FACE ( 'NONE', ( #111 ), #147, .F. ) ;
#426 = EDGE_CURVE ( 'NONE', #205, #610, #442, .T. ) ;
#427 = ADVANCED_FACE ( 'NONE', ( #313 ), #615, .F. ) ;
#428 = FACE_OUTER_BOUND ( 'NONE', #48, .T. ) ;
#429 = FACE_OUTER_BOUND ( 'NONE', #123, .T. ) ;
#430 = ORIENTED_EDGE ( 'NONE', *, *, #346, .F. ) ;
#431 = ADVANCED_FACE ( 'NONE', ( #563 ), #496, .F. ) ;
#432 = PLANE ( 'NONE',  #510 ) ;
#433 = EDGE_CURVE ( 'NONE', #367, #424, #236, .T. ) ;
#434 = CARTESIAN_POINT ( 'NONE',  ( 7.500000000000000000, 0.0000000000000000000, 3.875000000000000000 ) ) ;
#435 = VECTOR ( 'NONE', #151, 1000.000000000000000 ) ;
#436 = VERTEX_POINT ( 'NONE', #460 ) ;
#437 = VERTEX_POINT ( 'NONE', #156 ) ;
#438 = VERTEX_POINT ( 'NONE', #107 ) ;
#439 = DIRECTION ( 'NONE',  ( -0.0000000000000000000, 0.0000000000000000000, 1.000000000000000000 ) ) ;
#440 = EDGE_CURVE ( 'NONE', #281, #283, #547, .T. ) ;
#441 = CARTESIAN_POINT ( 'NONE',  ( 3.000000000000000000, 0.6666666666666666297, -3.875000000000000000 ) ) ;
#442 = LINE ( 'NONE', #253, #435 ) ;
#443 = ORIENTED_EDGE ( 'NONE', *, *, #500, .T. ) ;
#444 = ORIENTED_EDGE ( 'NONE', *, *, #602, .T. ) ;
#445 = DIRECTION ( 'NONE',  ( -1.000000000000000000, 0.0000000000000000000, 0.0000000000000000000 ) ) ;
#446 = DIRECTION ( 'NONE',  ( -0.0000000000000000000, -1.000000000000000000, -0.0000000000000000000 ) ) ;
#447 = EDGE_CURVE ( 'NONE', #335, #539, #260, .T. ) ;
#448 = CARTESIAN_POINT ( 'NONE',  ( 3.000000000000000000, 2.000000000000000000, 3.875000000000000000 ) ) ;
#449 = AXIS2_PLACEMENT_3D ( 'NONE', #616, #560, #450 ) ;
#450 = DIRECTION ( 'NONE',  ( 0.5999999999999997558, 0.8000000000000002665, 0.0000000000000000000 ) ) ;
#451 = ORIENTED_EDGE ( 'NONE', *, *, #299, .F. ) ;
#452 = VERTEX_POINT ( 'NONE', #517 ) ;
#453 = DIRECTION ( 'NONE',  ( -0.0000000000000000000, -0.0000000000000000000, -1.000000000000000000 ) ) ;
#454 = ORIENTED_EDGE ( 'NONE', *, *, #381, .T. ) ;
#455 = EDGE_CURVE ( 'NONE', #610, #368, #30, .T. ) ;
#456 = CARTESIAN_POINT ( 'NONE',  ( -3.000000000000000000, 0.6666666666666666297, 3.875000000000000000 ) ) ;
#457 = VECTOR ( 'NONE', #199, 1000.000000000000000 ) ;
#458 = LINE ( 'NONE', #278, #200 ) ;
#459 = ORIENTED_EDGE ( 'NONE', *, *, #569, .F. ) ;
#460 = CARTESIAN_POINT ( 'NONE',  ( -3.000000000000000000, 2.000000000000000000, 3.875000000000000000 ) ) ;
#461 = AXIS2_PLACEMENT_3D ( 'NONE', #401, #94, #407 ) ;
#462 = CARTESIAN_POINT ( 'NONE',  ( 7.500000000000000000, 1.333333333333333259, 3.875000000000000000 ) ) ;
#463 = CARTESIAN_POINT ( 'NONE',  ( -7.500000000000000000, 1.333333333333333259, 3.875000000000000000 ) ) ;
#464 = VECTOR ( 'NONE', #189, 1000.000000000000000 ) ;
#465 = ORIENTED_EDGE ( 'NONE', *, *, #513, .F. ) ;
#466 = EDGE_LOOP ( 'NONE', ( #396, #443, #202, #323 ) ) ;
#467 = ORIENTED_EDGE ( 'NONE', *, *, #567, .T. ) ;
#468 = ADVANCED_FACE ( 'NONE', ( #520 ), #227, .T. ) ;
#469 =( GEOMETRIC_REPRESENTATION_CONTEXT ( 3 ) GLOBAL_UNCERTAINTY_ASSIGNED_CONTEXT ( ( #169 ) ) GLOBAL_UNIT_ASSIGNED_CONTEXT ( ( #551, #195, #201 ) ) REPRESENTATION_CONTEXT ( 'NONE', 'WORKASPACE' ) );
#470 = DIRECTION ( 'NONE',  ( -0.0000000000000000000, 0.0000000000000000000, 1.000000000000000000 ) ) ;
#471 = LINE ( 'NONE', #398, #340 ) ;
#472 = ADVANCED_FACE ( 'NONE', ( #645 ), #479, .F. ) ;
#473 = VERTEX_POINT ( 'NONE', #540 ) ;
#474 = PRODUCT_DEFINITION_SHAPE ( 'NONE', 'NONE',  #617 ) ;
#475 = CARTESIAN_POINT ( 'NONE',  ( 7.500000000000000000, 0.0000000000000000000, 3.875000000000000000 ) ) ;
#476 = STYLED_ITEM ( 'NONE', ( #377 ), #55 ) ;
#477 = ORIENTED_EDGE ( 'NONE', *, *, #13, .T. ) ;
#478 = UNCERTAINTY_MEASURE_WITH_UNIT (LENGTH_MEASURE( 1.000000000000000082E-05 ), #178, 'distance_accuracy_value', 'NONE');
#479 = PLANE ( 'NONE',  #31 ) ;
#480 = EDGE_CURVE ( 'NONE', #4, #368, #211, .T. ) ;
#481 = DIRECTION ( 'NONE',  ( 0.0000000000000000000, -0.0000000000000000000, 1.000000000000000000 ) ) ;
#482 = SURFACE_STYLE_FILL_AREA ( #527 ) ;
#483 = VERTEX_POINT ( 'NONE', #382 ) ;
#484 = DIRECTION ( 'NONE',  ( 0.0000000000000000000, 1.000000000000000000, 0.0000000000000000000 ) ) ;
#485 = AXIS2_PLACEMENT_3D ( 'NONE', #135, #439, #493 ) ;
#486 = CARTESIAN_POINT ( 'NONE',  ( -3.000000000000000000, 2.000000000000000000, -3.875000000000000000 ) ) ;
#487 = VECTOR ( 'NONE', #247, 1000.000000000000000 ) ;
#488 = LINE ( 'NONE', #475, #362 ) ;
#489 = CARTESIAN_POINT ( 'NONE',  ( -3.000000000000000000, 2.000000000000000000, -3.875000000000000000 ) ) ;
#490 = ORIENTED_EDGE ( 'NONE', *, *, #409, .T. ) ;
#491 = ORIENTED_EDGE ( 'NONE', *, *, #299, .T. ) ;
#492 = EDGE_CURVE ( 'NONE', #231, #93, #385, .T. ) ;
#493 = DIRECTION ( 'NONE',  ( 1.000000000000000000, 0.0000000000000000000, 0.0000000000000000000 ) ) ;
#494 = CARTESIAN_POINT ( 'NONE',  ( -3.499999999999999556, 1.333333333333333259, -3.875000000000000000 ) ) ;
#495 = EDGE_CURVE ( 'NONE', #367, #327, #81, .T. ) ;
#496 = PLANE ( 'NONE',  #116 ) ;
#497 = DIRECTION ( 'NONE',  ( 1.000000000000000000, 0.0000000000000000000, -0.0000000000000000000 ) ) ;
#498 = EDGE_LOOP ( 'NONE', ( #113, #491, #83, #218 ) ) ;
#499 = CARTESIAN_POINT ( 'NONE',  ( -7.500000000000000000, 0.0000000000000000000, 3.875000000000000000 ) ) ;
#500 = EDGE_CURVE ( 'NONE', #231, #205, #471, .T. ) ;
#501 = CARTESIAN_POINT ( 'NONE',  ( -3.499999999999999556, 1.333333333333333259, -3.875000000000000000 ) ) ;
#502 = PLANE ( 'NONE',  #177 ) ;
#503 = CARTESIAN_POINT ( 'NONE',  ( -7.500000000000000000, 0.0000000000000000000, 3.875000000000000000 ) ) ;
#504 = DIRECTION ( 'NONE',  ( 0.0000000000000000000, 0.0000000000000000000, 1.000000000000000000 ) ) ;
#505 = VECTOR ( 'NONE', #129, 1000.000000000000000 ) ;
#506 = DIRECTION ( 'NONE',  ( -0.8000000000000002665, 0.5999999999999997558, 0.0000000000000000000 ) ) ;
#507 = VECTOR ( 'NONE', #422, 1000.000000000000000 ) ;
#508 = EDGE_LOOP ( 'NONE', ( #16, #352, #404, #106 ) ) ;
#509 = ORIENTED_EDGE ( 'NONE', *, *, #584, .F. ) ;
#510 = AXIS2_PLACEMENT_3D ( 'NONE', #587, #68, #643 ) ;
#511 = CARTESIAN_POINT ( 'NONE',  ( -3.499999999999999556, 0.0000000000000000000, 3.875000000000000000 ) ) ;
#512 = VECTOR ( 'NONE', #453, 1000.000000000000000 ) ;
#513 = EDGE_CURVE ( 'NONE', #176, #268, #63, .T. ) ;
#514 = MECHANICAL_DESIGN_GEOMETRIC_PRESENTATION_REPRESENTATION (  '', ( #160 ), #469 ) ;
#515 = ORIENTED_EDGE ( 'NONE', *, *, #400, .F. ) ;
#516 = ORIENTED_EDGE ( 'NONE', *, *, #390, .F. ) ;
#517 = CARTESIAN_POINT ( 'NONE',  ( 3.499999999999999556, 1.333333333333333259, -3.875000000000000000 ) ) ;
#518 = CARTESIAN_POINT ( 'NONE',  ( 3.000000000000000000, 0.6666666666666666297, -3.875000000000000000 ) ) ;
#519 = VECTOR ( 'NONE', #446, 1000.000000000000000 ) ;
#520 = FACE_OUTER_BOUND ( 'NONE', #10, .T. ) ;
#521 = FILL_AREA_STYLE ('',( #167 ) ) ;
#522 = LINE ( 'NONE', #12, #148 ) ;
#523 = AXIS2_PLACEMENT_3D ( 'NONE', #331, #484, #481 ) ;
#524 = EDGE_LOOP ( 'NONE', ( #316, #61, #406, #358 ) ) ;
#525 = CLOSED_SHELL ( 'NONE', ( #414, #168, #361, #468, #370, #121 ) ) ;
#526 = ADVANCED_FACE ( 'NONE', ( #428 ), #341, .F. ) ;
#527 = FILL_AREA_STYLE ('',( #175 ) ) ;
#528 = PLANE ( 'NONE',  #62 ) ;
#529 = LINE ( 'NONE', #656, #146 ) ;
#530 = CARTESIAN_POINT ( 'NONE',  ( 3.000000000000000000, 0.6666666666666666297, -10.02136297152859257 ) ) ;
#531 = LINE ( 'NONE', #220, #155 ) ;
#532 = DIRECTION ( 'NONE',  ( -1.000000000000000000, -0.0000000000000000000, -0.0000000000000000000 ) ) ;
#533 = EDGE_CURVE ( 'NONE', #415, #539, #288, .T. ) ;
#534 = ORIENTED_EDGE ( 'NONE', *, *, #359, .F. ) ;
#535 = CARTESIAN_POINT ( 'NONE',  ( -3.000000000000000000, 2.000000000000000000, 3.875000000000000000 ) ) ;
#536 = CARTESIAN_POINT ( 'NONE',  ( -3.499999999999999556, 1.333333333333333259, 3.875000000000000000 ) ) ;
#537 = VECTOR ( 'NONE', #662, 1000.000000000000000 ) ;
#538 = ORIENTED_EDGE ( 'NONE', *, *, #554, .F. ) ;
#539 = VERTEX_POINT ( 'NONE', #256 ) ;
#540 = CARTESIAN_POINT ( 'NONE',  ( 7.500000000000000000, 0.0000000000000000000, -3.875000000000000000 ) ) ;
#541 = ORIENTED_EDGE ( 'NONE', *, *, #426, .T. ) ;
#542 = DIRECTION ( 'NONE',  ( 1.000000000000000000, 0.0000000000000000000, -0.0000000000000000000 ) ) ;
#543 = DIRECTION ( 'NONE',  ( 0.5999999999999997558, -0.8000000000000002665, 0.0000000000000000000 ) ) ;
#544 =( GEOMETRIC_REPRESENTATION_CONTEXT ( 3 ) GLOBAL_UNCERTAINTY_ASSIGNED_CONTEXT ( ( #119 ) ) GLOBAL_UNIT_ASSIGNED_CONTEXT ( ( #285, #648, #187 ) ) REPRESENTATION_CONTEXT ( 'NONE', 'WORKASPACE' ) );
#545 = DIRECTION ( 'NONE',  ( 0.0000000000000000000, 1.000000000000000000, 0.0000000000000000000 ) ) ;
#546 = FILL_AREA_STYLE ('',( #613 ) ) ;
#547 = LINE ( 'NONE', #261, #163 ) ;
#548 = ORIENTED_EDGE ( 'NONE', *, *, #533, .T. ) ;
#549 = DIRECTION ( 'NONE',  ( 0.0000000000000000000, 0.0000000000000000000, 1.000000000000000000 ) ) ;
#550 = DIRECTION ( 'NONE',  ( -1.000000000000000000, 0.0000000000000000000, 0.0000000000000000000 ) ) ;
#551 =( LENGTH_UNIT ( ) NAMED_UNIT ( * ) SI_UNIT ( .MILLI., .METRE. ) );
#552 = SURFACE_SIDE_STYLE ('',( #597 ) ) ;
#553 = CARTESIAN_POINT ( 'NONE',  ( 7.500000000000000000, 1.333333333333333259, 3.875000000000000000 ) ) ;
#554 = EDGE_CURVE ( 'NONE', #646, #367, #320, .T. ) ;
#555 = PRESENTATION_STYLE_ASSIGNMENT (( #197 ) ) ;
#556 = LINE ( 'NONE', #95, #512 ) ;
#557 = EDGE_LOOP ( 'NONE', ( #565, #640, #224, #611 ) ) ;
#558 = DIRECTION ( 'NONE',  ( -1.000000000000000000, 0.0000000000000000000, 0.0000000000000000000 ) ) ;
#559 = ORIENTED_EDGE ( 'NONE', *, *, #607, .F. ) ;
#560 = DIRECTION ( 'NONE',  ( 0.8000000000000002665, -0.5999999999999997558, 0.0000000000000000000 ) ) ;
#561 = AXIS2_PLACEMENT_3D ( 'NONE', #503, #208, #311 ) ;
#562 = DIRECTION ( 'NONE',  ( 0.0000000000000000000, 0.0000000000000000000, 1.000000000000000000 ) ) ;
#563 = FACE_OUTER_BOUND ( 'NONE', #131, .T. ) ;
#564 = ORIENTED_EDGE ( 'NONE', *, *, #259, .T. ) ;
#565 = ORIENTED_EDGE ( 'NONE', *, *, #100, .T. ) ;
#566 = DIRECTION ( 'NONE',  ( -0.0000000000000000000, -0.0000000000000000000, -1.000000000000000000 ) ) ;
#567 = EDGE_CURVE ( 'NONE', #436, #276, #556, .T. ) ;
#568 = CARTESIAN_POINT ( 'NONE',  ( 3.499999999999999556, 0.0000000000000000000, 3.875000000000000000 ) ) ;
#569 = EDGE_CURVE ( 'NONE', #270, #281, #7, .T. ) ;
#570 = LINE ( 'NONE', #136, #274 ) ;
#571 = EDGE_LOOP ( 'NONE', ( #18, #3, #589, #467 ) ) ;
#572 = ORIENTED_EDGE ( 'NONE', *, *, #447, .F. ) ;
#573 = ORIENTED_EDGE ( 'NONE', *, *, #325, .T. ) ;
#574 = ADVANCED_FACE ( 'NONE', ( #137 ), #252, .F. ) ;
#575 = ADVANCED_BREP_SHAPE_REPRESENTATION ( 'PSR500HTQFC0L20', ( #174, #289, #55, #6 ), #207 ) ;
#576 = ADVANCED_FACE ( 'NONE', ( #51 ), #660, .F. ) ;
#577 = LINE ( 'NONE', #97, #537 ) ;
#578 = DIRECTION ( 'NONE',  ( 0.0000000000000000000, 1.000000000000000000, 0.0000000000000000000 ) ) ;
#579 = LINE ( 'NONE', #70, #290 ) ;
#580 = PRESENTATION_LAYER_ASSIGNMENT (  '', '', ( #73 ) ) ;
#581 = ADVANCED_FACE ( 'NONE', ( #28 ), #345, .F. ) ;
#582 = EDGE_LOOP ( 'NONE', ( #67, #271, #601, #379 ) ) ;
#583 = ADVANCED_FACE ( 'NONE', ( #383 ), #502, .F. ) ;
#584 = EDGE_CURVE ( 'NONE', #93, #4, #162, .T. ) ;
#585 = CARTESIAN_POINT ( 'NONE',  ( -3.000000000000000000, 2.000000000000000000, 3.875000000000000000 ) ) ;
#586 = DIRECTION ( 'NONE',  ( 1.000000000000000000, -0.0000000000000000000, 0.0000000000000000000 ) ) ;
#587 = CARTESIAN_POINT ( 'NONE',  ( 3.000000000000000000, 0.6666666666666666297, 3.875000000000000000 ) ) ;
#588 = LINE ( 'NONE', #494, #619 ) ;
#589 = ORIENTED_EDGE ( 'NONE', *, *, #602, .F. ) ;
#590 =( LENGTH_UNIT ( ) NAMED_UNIT ( * ) SI_UNIT ( .MILLI., .METRE. ) );
#591 = AXIS2_PLACEMENT_3D ( 'NONE', #72, #578, #64 ) ;
#592 = ORIENTED_EDGE ( 'NONE', *, *, #626, .F. ) ;
#593 = ORIENTED_EDGE ( 'NONE', *, *, #533, .F. ) ;
#594 = CARTESIAN_POINT ( 'NONE',  ( -3.000000000000000000, 0.6666666666666666297, -10.02136297152859257 ) ) ;
#595 = MECHANICAL_DESIGN_GEOMETRIC_PRESENTATION_REPRESENTATION (  '', ( #238 ), #544 ) ;
#596 = CARTESIAN_POINT ( 'NONE',  ( 3.000000000000000000, 2.000000000000000000, -10.02136297152859257 ) ) ;
#597 = SURFACE_STYLE_FILL_AREA ( #546 ) ;
#598 = CARTESIAN_POINT ( 'NONE',  ( 3.499999999999999556, 1.333333333333333259, 3.875000000000000000 ) ) ;
#599 = LINE ( 'NONE', #79, #326 ) ;
#600 = VECTOR ( 'NONE', #78, 1000.000000000000000 ) ;
#601 = ORIENTED_EDGE ( 'NONE', *, *, #13, .F. ) ;
#602 = EDGE_CURVE ( 'NONE', #436, #343, #182, .T. ) ;
#603 = CARTESIAN_POINT ( 'NONE',  ( -7.500000000000000000, 1.333333333333333259, 3.875000000000000000 ) ) ;
#604 = DIRECTION ( 'NONE',  ( 1.000000000000000000, 0.0000000000000000000, 0.0000000000000000000 ) ) ;
#605 = UNCERTAINTY_MEASURE_WITH_UNIT (LENGTH_MEASURE( 1.000000000000000082E-05 ), #590, 'distance_accuracy_value', 'NONE');
#606 = CARTESIAN_POINT ( 'NONE',  ( -3.499999999999999556, 0.0000000000000000000, 3.875000000000000000 ) ) ;
#607 = EDGE_CURVE ( 'NONE', #257, #424, #418, .T. ) ;
#608 = DIRECTION ( 'NONE',  ( 0.0000000000000000000, 0.0000000000000000000, -1.000000000000000000 ) ) ;
#609 = PRESENTATION_STYLE_ASSIGNMENT (( #273 ) ) ;
#610 = VERTEX_POINT ( 'NONE', #50 ) ;
#611 = ORIENTED_EDGE ( 'NONE', *, *, #369, .T. ) ;
#612 = CARTESIAN_POINT ( 'NONE',  ( -7.500000000000000000, 1.333333333333333259, -3.875000000000000000 ) ) ;
#613 = FILL_AREA_STYLE_COLOUR ( '', #319 ) ;
#614 = DIRECTION ( 'NONE',  ( 0.0000000000000000000, -0.0000000000000000000, -1.000000000000000000 ) ) ;
#615 = PLANE ( 'NONE',  #86 ) ;
#616 = CARTESIAN_POINT ( 'NONE',  ( -3.499999999999999556, 1.333333333333333259, 3.875000000000000000 ) ) ;
#617 = PRODUCT_DEFINITION ( 'UNKNOWN', '', #309, #232 ) ;
#618 = CARTESIAN_POINT ( 'NONE',  ( 0.0000000000000000000, 0.0000000000000000000, 3.875000000000000000 ) ) ;
#619 = VECTOR ( 'NONE', #194, 1000.000000000000114 ) ;
#620 = FACE_OUTER_BOUND ( 'NONE', #498, .T. ) ;
#621 = ORIENTED_EDGE ( 'NONE', *, *, #440, .T. ) ;
#622 = ORIENTED_EDGE ( 'NONE', *, *, #433, .T. ) ;
#623 = AXIS2_PLACEMENT_3D ( 'NONE', #258, #49, #44 ) ;
#624 = VECTOR ( 'NONE', #344, 1000.000000000000000 ) ;
#625 = ORIENTED_EDGE ( 'NONE', *, *, #221, .T. ) ;
#626 = EDGE_CURVE ( 'NONE', #276, #415, #588, .T. ) ;
#627 = PLANE ( 'NONE',  #35 ) ;
#628 = AXIS2_PLACEMENT_3D ( 'NONE', #234, #372, #284 ) ;
#629 = LINE ( 'NONE', #647, #267 ) ;
#630 = LINE ( 'NONE', #635, #357 ) ;
#631 = ORIENTED_EDGE ( 'NONE', *, *, #159, .T. ) ;
#632 = EDGE_LOOP ( 'NONE', ( #509, #17, #33, #24 ) ) ;
#633 = CARTESIAN_POINT ( 'NONE',  ( -7.500000000000000000, 0.0000000000000000000, -3.875000000000000000 ) ) ;
#634 = AXIS2_PLACEMENT_3D ( 'NONE', #652, #497, #301 ) ;
#635 = CARTESIAN_POINT ( 'NONE',  ( 3.499999999999999556, 1.333333333333333259, -3.875000000000000000 ) ) ;
#636 = CARTESIAN_POINT ( 'NONE',  ( 3.000000000000000000, 2.000000000000000000, 3.875000000000000000 ) ) ;
#637 = VECTOR ( 'NONE', #532, 1000.000000000000000 ) ;
#638 = EDGE_CURVE ( 'NONE', #438, #473, #302, .T. ) ;
#639 = COLOUR_RGB ( '',1.000000000000000000, 1.000000000000000000, 0.7529411764705882248 ) ;
#640 = ORIENTED_EDGE ( 'NONE', *, *, #11, .F. ) ;
#641 =( NAMED_UNIT ( * ) PLANE_ANGLE_UNIT ( ) SI_UNIT ( $, .RADIAN. ) );
#642 = DIRECTION ( 'NONE',  ( 0.0000000000000000000, -0.0000000000000000000, -1.000000000000000000 ) ) ;
#643 = DIRECTION ( 'NONE',  ( -0.5999999999999997558, 0.8000000000000002665, 0.0000000000000000000 ) ) ;
#644 = FILL_AREA_STYLE_COLOUR ( '', #58 ) ;
#645 = FACE_OUTER_BOUND ( 'NONE', #334, .T. ) ;
#646 = VERTEX_POINT ( 'NONE', #244 ) ;
#647 = CARTESIAN_POINT ( 'NONE',  ( 3.000000000000000000, 0.6666666666666666297, -3.875000000000000000 ) ) ;
#648 =( NAMED_UNIT ( * ) PLANE_ANGLE_UNIT ( ) SI_UNIT ( $, .RADIAN. ) );
#649 = CARTESIAN_POINT ( 'NONE',  ( 0.0000000000000000000, 0.0000000000000000000, 3.875000000000000000 ) ) ;
#650 = VECTOR ( 'NONE', #566, 1000.000000000000000 ) ;
#651 = LINE ( 'NONE', #324, #507 ) ;
#652 = CARTESIAN_POINT ( 'NONE',  ( 3.000000000000000000, 2.000000000000000000, 3.875000000000000000 ) ) ;
#653 = VERTEX_POINT ( 'NONE', #245 ) ;
#654 = EDGE_CURVE ( 'NONE', #335, #646, #663, .T. ) ;
#655 = ORIENTED_EDGE ( 'NONE', *, *, #109, .F. ) ;
#656 = CARTESIAN_POINT ( 'NONE',  ( -3.000000000000000000, 2.000000000000000000, -3.875000000000000000 ) ) ;
#657 = AXIS2_PLACEMENT_3D ( 'NONE', #389, #249, #614 ) ;
#658 = DIRECTION ( 'NONE',  ( -1.000000000000000000, 0.0000000000000000000, -0.0000000000000000000 ) ) ;
#659 = PLANE ( 'NONE',  #217 ) ;
#660 = PLANE ( 'NONE',  #449 ) ;
#661 =( GEOMETRIC_REPRESENTATION_CONTEXT ( 3 ) GLOBAL_UNCERTAINTY_ASSIGNED_CONTEXT ( ( #605 ) ) GLOBAL_UNIT_ASSIGNED_CONTEXT ( ( #590, #641, #26 ) ) REPRESENTATION_CONTEXT ( 'NONE', 'WORKASPACE' ) );
#662 = DIRECTION ( 'NONE',  ( -1.000000000000000000, -0.0000000000000000000, -0.0000000000000000000 ) ) ;
#663 = LINE ( 'NONE', #206, #519 ) ;
#664 = VECTOR ( 'NONE', #161, 1000.000000000000000 ) ;
ENDSEC;
END-ISO-10303-21;
